<mxfile host="app.diagrams.net" modified="2022-11-01T13:18:04.986Z" agent="5.0 (Windows NT 10.0; Win64; x64) AppleWebKit/537.36 (KHTML, like Gecko) Chrome/107.0.0.0 Safari/537.36" etag="x_ckChAxcIGgn1xEV4YM" version="20.3.5" type="github">
  <diagram id="RXMFhCxjWmqhvh15vztk" name="Page-1">
    <mxGraphModel dx="1240" dy="662" grid="1" gridSize="10" guides="1" tooltips="1" connect="1" arrows="1" fold="1" page="1" pageScale="1" pageWidth="850" pageHeight="1100" math="0" shadow="0">
      <root>
        <mxCell id="0" />
        <mxCell id="1" parent="0" />
        <mxCell id="3QEd6N9UvnGJn1UHd3mm-7" value="" style="edgeStyle=orthogonalEdgeStyle;rounded=0;orthogonalLoop=1;jettySize=auto;html=1;" edge="1" parent="1" source="3QEd6N9UvnGJn1UHd3mm-3" target="3QEd6N9UvnGJn1UHd3mm-6">
          <mxGeometry relative="1" as="geometry" />
        </mxCell>
        <mxCell id="3QEd6N9UvnGJn1UHd3mm-9" value="" style="edgeStyle=orthogonalEdgeStyle;rounded=0;orthogonalLoop=1;jettySize=auto;html=1;" edge="1" parent="1" source="3QEd6N9UvnGJn1UHd3mm-3" target="3QEd6N9UvnGJn1UHd3mm-8">
          <mxGeometry relative="1" as="geometry" />
        </mxCell>
        <mxCell id="3QEd6N9UvnGJn1UHd3mm-29" style="edgeStyle=orthogonalEdgeStyle;rounded=0;orthogonalLoop=1;jettySize=auto;html=1;" edge="1" parent="1" source="3QEd6N9UvnGJn1UHd3mm-3" target="3QEd6N9UvnGJn1UHd3mm-5">
          <mxGeometry relative="1" as="geometry" />
        </mxCell>
        <mxCell id="3QEd6N9UvnGJn1UHd3mm-3" value="PLAYER" style="rounded=0;whiteSpace=wrap;html=1;" vertex="1" parent="1">
          <mxGeometry x="360" y="580" width="100" height="60" as="geometry" />
        </mxCell>
        <mxCell id="3QEd6N9UvnGJn1UHd3mm-19" style="edgeStyle=orthogonalEdgeStyle;rounded=0;orthogonalLoop=1;jettySize=auto;html=1;fillColor=#f8cecc;strokeColor=#b85450;" edge="1" parent="1" source="3QEd6N9UvnGJn1UHd3mm-5" target="3QEd6N9UvnGJn1UHd3mm-16">
          <mxGeometry relative="1" as="geometry" />
        </mxCell>
        <mxCell id="3QEd6N9UvnGJn1UHd3mm-20" value="Connector&lt;br&gt;" style="edgeLabel;html=1;align=center;verticalAlign=middle;resizable=0;points=[];" vertex="1" connectable="0" parent="3QEd6N9UvnGJn1UHd3mm-19">
          <mxGeometry x="0.1843" y="-3" relative="1" as="geometry">
            <mxPoint x="3" as="offset" />
          </mxGeometry>
        </mxCell>
        <mxCell id="3QEd6N9UvnGJn1UHd3mm-5" value="User Interface" style="rounded=0;whiteSpace=wrap;html=1;" vertex="1" parent="1">
          <mxGeometry x="510" y="580" width="120" height="60" as="geometry" />
        </mxCell>
        <mxCell id="3QEd6N9UvnGJn1UHd3mm-6" value="Player Controller" style="rounded=0;whiteSpace=wrap;html=1;" vertex="1" parent="1">
          <mxGeometry x="220" y="580" width="100" height="60" as="geometry" />
        </mxCell>
        <mxCell id="3QEd6N9UvnGJn1UHd3mm-11" value="" style="edgeStyle=orthogonalEdgeStyle;rounded=0;orthogonalLoop=1;jettySize=auto;html=1;" edge="1" parent="1" source="3QEd6N9UvnGJn1UHd3mm-8" target="3QEd6N9UvnGJn1UHd3mm-10">
          <mxGeometry relative="1" as="geometry" />
        </mxCell>
        <mxCell id="3QEd6N9UvnGJn1UHd3mm-15" value="" style="edgeStyle=orthogonalEdgeStyle;rounded=0;orthogonalLoop=1;jettySize=auto;html=1;startArrow=none;" edge="1" parent="1" source="3QEd6N9UvnGJn1UHd3mm-16" target="3QEd6N9UvnGJn1UHd3mm-14">
          <mxGeometry relative="1" as="geometry" />
        </mxCell>
        <mxCell id="3QEd6N9UvnGJn1UHd3mm-8" value="Gameplay Mechanics" style="rounded=0;whiteSpace=wrap;html=1;" vertex="1" parent="1">
          <mxGeometry x="360" y="690" width="100" height="60" as="geometry" />
        </mxCell>
        <mxCell id="3QEd6N9UvnGJn1UHd3mm-22" style="edgeStyle=orthogonalEdgeStyle;rounded=0;orthogonalLoop=1;jettySize=auto;html=1;entryX=0.008;entryY=0.654;entryDx=0;entryDy=0;entryPerimeter=0;fillColor=#ffe6cc;strokeColor=#d79b00;" edge="1" parent="1" source="3QEd6N9UvnGJn1UHd3mm-10" target="3QEd6N9UvnGJn1UHd3mm-21">
          <mxGeometry relative="1" as="geometry" />
        </mxCell>
        <mxCell id="3QEd6N9UvnGJn1UHd3mm-23" value="ADDITIONAL" style="edgeLabel;html=1;align=center;verticalAlign=middle;resizable=0;points=[];" vertex="1" connectable="0" parent="3QEd6N9UvnGJn1UHd3mm-22">
          <mxGeometry x="0.0602" y="-1" relative="1" as="geometry">
            <mxPoint as="offset" />
          </mxGeometry>
        </mxCell>
        <mxCell id="3QEd6N9UvnGJn1UHd3mm-10" value="Tetris f.e" style="rounded=0;whiteSpace=wrap;html=1;" vertex="1" parent="1">
          <mxGeometry x="360" y="810" width="100" height="60" as="geometry" />
        </mxCell>
        <mxCell id="3QEd6N9UvnGJn1UHd3mm-26" style="edgeStyle=orthogonalEdgeStyle;rounded=0;orthogonalLoop=1;jettySize=auto;html=1;entryX=0;entryY=0.5;entryDx=0;entryDy=0;" edge="1" parent="1" source="3QEd6N9UvnGJn1UHd3mm-12" target="3QEd6N9UvnGJn1UHd3mm-27">
          <mxGeometry relative="1" as="geometry">
            <mxPoint x="720" y="840.0000000000002" as="targetPoint" />
          </mxGeometry>
        </mxCell>
        <mxCell id="3QEd6N9UvnGJn1UHd3mm-12" value="Generator Parts" style="rounded=0;whiteSpace=wrap;html=1;" vertex="1" parent="1">
          <mxGeometry x="520" y="770" width="100" height="60" as="geometry" />
        </mxCell>
        <mxCell id="3QEd6N9UvnGJn1UHd3mm-25" style="edgeStyle=orthogonalEdgeStyle;rounded=0;orthogonalLoop=1;jettySize=auto;html=1;entryX=0.5;entryY=0;entryDx=0;entryDy=0;" edge="1" parent="1" source="3QEd6N9UvnGJn1UHd3mm-14" target="3QEd6N9UvnGJn1UHd3mm-27">
          <mxGeometry relative="1" as="geometry">
            <mxPoint x="720" y="840.0000000000002" as="targetPoint" />
          </mxGeometry>
        </mxCell>
        <mxCell id="3QEd6N9UvnGJn1UHd3mm-14" value="Ladder" style="rounded=0;whiteSpace=wrap;html=1;" vertex="1" parent="1">
          <mxGeometry x="670" y="650" width="100" height="60" as="geometry" />
        </mxCell>
        <mxCell id="3QEd6N9UvnGJn1UHd3mm-18" style="edgeStyle=orthogonalEdgeStyle;rounded=0;orthogonalLoop=1;jettySize=auto;html=1;" edge="1" parent="1" source="3QEd6N9UvnGJn1UHd3mm-16" target="3QEd6N9UvnGJn1UHd3mm-12">
          <mxGeometry relative="1" as="geometry">
            <Array as="points">
              <mxPoint x="570" y="750" />
              <mxPoint x="570" y="750" />
            </Array>
          </mxGeometry>
        </mxCell>
        <mxCell id="3QEd6N9UvnGJn1UHd3mm-16" value="List note of Quests line with tasks and sub-tasks." style="rounded=1;whiteSpace=wrap;html=1;fillColor=#dae8fc;strokeColor=#6c8ebf;" vertex="1" parent="1">
          <mxGeometry x="510" y="695" width="120" height="50" as="geometry" />
        </mxCell>
        <mxCell id="3QEd6N9UvnGJn1UHd3mm-17" value="" style="edgeStyle=orthogonalEdgeStyle;rounded=0;orthogonalLoop=1;jettySize=auto;html=1;endArrow=none;" edge="1" parent="1" source="3QEd6N9UvnGJn1UHd3mm-8" target="3QEd6N9UvnGJn1UHd3mm-16">
          <mxGeometry relative="1" as="geometry">
            <mxPoint x="460" y="679.9999999999998" as="sourcePoint" />
            <mxPoint x="670" y="679.9999999999998" as="targetPoint" />
          </mxGeometry>
        </mxCell>
        <mxCell id="3QEd6N9UvnGJn1UHd3mm-21" value="End Game" style="rounded=0;whiteSpace=wrap;html=1;" vertex="1" parent="1">
          <mxGeometry x="510" y="940" width="120" height="60" as="geometry" />
        </mxCell>
        <mxCell id="3QEd6N9UvnGJn1UHd3mm-28" style="edgeStyle=orthogonalEdgeStyle;rounded=0;orthogonalLoop=1;jettySize=auto;html=1;" edge="1" parent="1" source="3QEd6N9UvnGJn1UHd3mm-27" target="3QEd6N9UvnGJn1UHd3mm-21">
          <mxGeometry relative="1" as="geometry" />
        </mxCell>
        <mxCell id="3QEd6N9UvnGJn1UHd3mm-27" value="OR" style="ellipse;whiteSpace=wrap;html=1;aspect=fixed;" vertex="1" parent="1">
          <mxGeometry x="700" y="840" width="40" height="40" as="geometry" />
        </mxCell>
      </root>
    </mxGraphModel>
  </diagram>
</mxfile>
